<?xml version="1.0" standalone="no"?><!-- Generator: Gravit.io --><svg xmlns="http://www.w3.org/2000/svg" xmlns:xlink="http://www.w3.org/1999/xlink" style="isolation:isolate" viewBox="0 0 1024 1024" width="1024" height="1024"><defs><clipPath id="_clipPath_6T98s1eFijTwszm9nMzDwGkR1ecZbt4F"><rect width="1024" height="1024"/></clipPath></defs><g clip-path="url(#_clipPath_6T98s1eFijTwszm9nMzDwGkR1ecZbt4F)"><path d=" M 152.592 514.722 C 152.592 315.797 314.093 154.296 513.018 154.296 C 711.942 154.296 873.444 315.797 873.444 514.722 C 873.444 713.646 711.942 875.148 513.018 875.148 C 314.093 875.148 152.592 713.646 152.592 514.722 Z " fill="rgb(1,91,193)"/><path d=" M 216.568 514.722 C 216.568 351.107 349.403 218.272 513.018 218.272 C 676.633 218.272 809.467 351.107 809.467 514.722 C 809.467 678.337 676.633 811.172 513.018 811.172 C 349.403 811.172 216.568 678.337 216.568 514.722 Z " fill="rgb(0,121,253)"/><path d=" M 277.917 514.722 C 277.917 384.966 383.262 279.621 513.018 279.621 C 642.773 279.621 748.118 384.966 748.118 514.722 C 748.118 644.477 642.773 749.822 513.018 749.822 C 383.262 749.822 277.917 644.477 277.917 514.722 Z " fill="rgb(66,155,255)"/><path d=" M 65.54 812.771 L 268.343 467.518 L 763.721 181.511 C 801.481 159.711 849.836 172.668 871.637 210.427 L 990.233 415.842 C 1012.034 453.602 999.077 501.958 961.317 523.758 L 462.783 811.587 L 65.54 812.771 Z " fill="rgb(210,108,133)"/><path d=" M 678.682 230.609 L 268.343 467.518 L 65.54 812.771 L 462.783 811.587 L 872.488 575.044 C 848.022 439.005 777.946 318.72 678.682 230.609 Z " fill="rgb(183,107,26)"/><path d=" M 543.072 308.903 L 268.343 467.518 L 65.54 812.771 L 462.783 811.587 L 747.346 647.295 C 738.747 503.868 659.056 379.471 543.072 308.903 Z " fill="rgb(229,130,27)"/><path d=" M 291.199 454.322 L 268.343 467.518 L 65.54 812.771 L 462.783 811.587 L 492.903 794.197 C 500.396 769.558 504.426 743.418 504.426 716.344 C 504.426 587.29 412.855 479.454 291.199 454.322 Z " fill="rgb(226,189,138)"/><path d=" M 169.906 635.098 L 65.54 812.771 L 293.902 812.091 C 284.478 734.703 236.563 669.123 169.906 635.098 Z " fill="rgb(29,29,41)"/></g></svg>